<svg id="레이어_1" data-name="레이어 1" xmlns="http://www.w3.org/2000/svg" xmlns:xlink="http://www.w3.org/1999/xlink" viewBox="0 0 2263.9 813.3">
  <defs>
    <clipPath id="clip-path" transform="translate(143.4 -188.8)">
      <path id="heart-2" d="M1688.1,303.2a4.9,4.9,0,0,1-2.2-4.3c-.2-3.2,4.5-4.3,4.5-4.3h-.2l1-.2a3.5,3.5,0,0,0,2.2-1.9,4.1,4.1,0,0,0,0-3.1,13.4,13.4,0,0,0-2.6-4.1,21.8,21.8,0,0,0-4.2-3.7,49.2,49.2,0,0,0-10.7-5.6,76.4,76.4,0,0,0-12-3.8l-6.2-1.4-6.1-1h-5.8c-2,0-4,.2-6,.4-8,.9-15.6,3.4-21.4,7.6a32.3,32.3,0,0,0-12.2,17,56,56,0,0,0-2.2,11.1,56.8,56.8,0,0,0-.3,5.9,26.1,26.1,0,0,0,0,2.8,24.6,24.6,0,0,0,.2,2.8,44.8,44.8,0,0,0,7.3,20.9,67.6,67.6,0,0,0,7.2,9,77,77,0,0,0,9,7.9,108.6,108.6,0,0,0,21.3,12.3,149.2,149.2,0,0,0,23.8,8.4,196.1,196.1,0,0,0,25.2,4.7,169.7,169.7,0,0,0,51.3-1.7l6.3-1.3,6.4-1.6,13-3.1,25.9-6.2c34.6-7.9,69.7-14.6,105.2-17.9a502.6,502.6,0,0,1,106.9,1.1,415.7,415.7,0,0,1,103.4,25.8A570.2,570.2,0,0,0,2011.9,358c-35-2.6-70.2-1.9-105.1,1a735.7,735.7,0,0,0-104.2,16.4c-8.6,2-17.2,4.1-25.7,6.3l-12.8,3.4-6.4,1.7-6.7,1.7a189.1,189.1,0,0,1-27,4,191.4,191.4,0,0,1-27.3.2,176.8,176.8,0,0,1-53.9-11.1,113.7,113.7,0,0,1-25.1-13.2,81,81,0,0,1-20.9-20.8,66.9,66.9,0,0,1-6.9-13.6,65.8,65.8,0,0,1-3.3-15.1c-.1-1.3-.2-2.6-.2-3.8s-.1-2.6,0-3.8a62.7,62.7,0,0,1,.5-7.4,67.7,67.7,0,0,1,1.3-7.4,69.1,69.1,0,0,1,2.2-7.4,50.2,50.2,0,0,1,7.7-13.7,44.5,44.5,0,0,1,12-10.5,54.1,54.1,0,0,1,14.1-5.9,74.5,74.5,0,0,1,14.6-2.1h7.3l3.6.3,1.8.2.9.2h1.1l6.9,1.8,6.6,2a108.6,108.6,0,0,1,13,5,71.3,71.3,0,0,1,12.4,7.4,39.1,39.1,0,0,1,5.5,5.3,20.7,20.7,0,0,1,4.1,7.3,12.7,12.7,0,0,1,.7,4.8,11.5,11.5,0,0,1-1.2,5,12,12,0,0,1-3.3,4.1,11.3,11.3,0,0,1-4.3,2.3l-2.3.6A8.2,8.2,0,0,1,1688.1,303.2Z" fill="none"/>
    </clipPath>
    <linearGradient id="무제_그라디언트_31" data-name="무제 그라디언트 31" x1="1578.95" y1="324.43" x2="2120.57" y2="324.43" gradientUnits="userSpaceOnUse">
      <stop offset="0" stop-color="#f08934"/>
      <stop offset="0.7" stop-color="#ef8232"/>
      <stop offset="0.85" stop-color="#ee7a30"/>
      <stop offset="1" stop-color="#ed732e"/>
    </linearGradient>
    <clipPath id="clip-path-2" transform="translate(143.4 -188.8)">
      <path id="heart-2-2" data-name="heart-2" d="M1698.2,300.5a11.3,11.3,0,0,1-4.3,2.3l-2.3.6a8.2,8.2,0,0,1-3.5-.2,11.2,11.2,0,0,1-4.8-2.9,24.4,24.4,0,0,1-4.6-6.7,66.9,66.9,0,0,1-4.6-13.7,95,95,0,0,1-2-13.9,96.1,96.1,0,0,1-.1-14.2,72.9,72.9,0,0,1,7.4-28,59.1,59.1,0,0,1,8.7-12.6,50.7,50.7,0,0,1,12.3-9.7,48,48,0,0,1,14.5-5.4,69.1,69.1,0,0,1,14.9-1.5h.7a43.8,43.8,0,0,1,11.2,2.3,40.8,40.8,0,0,1,10.5,5.1,52.3,52.3,0,0,1,15.3,16.2,88,88,0,0,1,8.5,19.2,152.4,152.4,0,0,1,4.5,19.5,259.2,259.2,0,0,1,2.9,39.1c.1,13-.4,25.9-1.3,38.8q-.7,9.6-1.8,19.2l-1.2,9.6-.7,4.8-.4,2.4-.2,1.2v.6c0,.4-.1.6-.1.8-2.7,12.6-5.4,25.1-8.5,37.5q-8.8,37.3-20.6,74c-15.6,48.7-35.5,96.4-61.6,140.9-6.5,11.1-13.4,22-20.6,32.6-1.8,2.7-3.7,5.3-5.6,8l-2.7,3.9-2.9,3.9-5.8,7.8-5.9,7.6c-8.1,10.1-16.3,20-25.1,29.4l-3.3,3.6-3.3,3.5-6.8,7c-4.5,4.5-9.1,9.1-13.8,13.5s-9.5,8.7-14.3,13l-14.6,12.5-14.8,12.2-7.4,6.1-7.6,5.9q-30.2,23.9-61.9,45.6a947.4,947.4,0,0,1-133.7,76,818.9,818.9,0,0,1-145,51.2,816.1,816.1,0,0,1-152.1,23,937.7,937.7,0,0,1-153.6-4.4c-51-5.5-101.4-15.1-151.1-27.4a1529.5,1529.5,0,0,1-146.6-44.8c-48.1-17.3-95.4-36.5-142.1-57.2l-8.8-3.9-8.7-3.9-8.6-4-4.3-2-4.4-1.9c-11.5-5.1-23.1-10-34.9-14.7-23.4-9.4-47.3-17.8-71.4-25.2a741.5,741.5,0,0,0-73.3-18.5c-12.4-2.4-24.8-4.7-37.2-6.4-6.3-1-12.5-1.6-18.8-2.4s-12.5-1.4-18.8-1.8-12.5-.9-18.8-1.3-12.6-.5-18.9-.5c-12.5-.2-25.1,0-37.7.7a550,550,0,0,0-74.6,9.9c-6.2,1.3-12.3,2.6-18.4,4.1l-9.1,2.3-9.1,2.5c-12.1,3.5-24.1,7.3-35.9,11.7s-23.4,9.2-34.8,14.7a278.3,278.3,0,0,0-33.4,18.3c2.3-2.3,4.8-4.4,7.2-6.4l7.7-5.9c5.1-3.7,10.5-7.3,15.9-10.7A300.8,300.8,0,0,1-68.7,795a356.3,356.3,0,0,1,35.9-14.1l9.3-2.9c3.1-.9,6.1-1.9,9.2-2.7,6.3-1.7,12.5-3.3,18.8-4.8A469.3,469.3,0,0,1,81,760c12.9-.7,25.7-1,38.6-.9,3.2.1,6.4,0,9.6.2l9.7.3c6.4.3,12.8.6,19.2,1.1s12.9,1.1,19.3,1.6,12.7,1.4,19.1,2.4c12.7,1.6,25.4,3.8,38,6.2a770.3,770.3,0,0,1,74.8,18.5c24.5,7.4,48.7,16,72.5,25.5q17.8,7.2,35.4,15l4.4,1.9,4.4,2,8.7,4,8.7,4,8.6,3.8c46.4,20.5,93.4,39.7,141.2,56.8a1509.2,1509.2,0,0,0,145.2,44.4c49.1,12.2,98.9,21.7,149.2,27.2a889.3,889.3,0,0,0,151.3,4.1c25.1-1.5,50.3-4.1,75.2-7.9s49.6-9,74.1-15.2a817.1,817.1,0,0,0,142.2-51c45.8-21.2,89.6-46.5,131.5-74.7,20.9-14.2,41.2-29.2,61.2-44.8l7.4-5.8,7.4-6c4.9-4,9.9-7.9,14.7-12s9.7-8.1,14.4-12.2,9.5-8.3,14-12.6,9.1-8.6,13.6-13c2.3-2.2,4.4-4.5,6.6-6.7l3.3-3.4,3.2-3.5c8.6-9.1,16.7-18.7,24.7-28.4l5.8-7.4,5.7-7.5,2.8-3.8,2.7-3.8c1.9-2.5,3.7-5.1,5.5-7.7,7.1-10.3,13.9-20.9,20.4-31.7,25.7-43.2,45.6-89.9,61.3-137.9,7.8-24,14.6-48.4,20.6-73,3-12.3,5.7-24.7,8.3-36.9a1.1,1.1,0,0,0,.1-.5v-.5l.2-1.2.3-2.3.7-4.6c.4-3.1.8-6.3,1.1-9.4.7-6.2,1.3-12.5,1.8-18.7a337.7,337.7,0,0,0,.9-37.6,203.2,203.2,0,0,0-4-36.8,108.7,108.7,0,0,0-4.8-17.4,67,67,0,0,0-7.6-15.4,37.3,37.3,0,0,0-10.9-11.1,31.6,31.6,0,0,0-14.2-4.4h.6a53.8,53.8,0,0,0-11.4,1.2A46.9,46.9,0,0,0,1708,216a38,38,0,0,0-8.9,6.1,35.6,35.6,0,0,0-7.1,8.7,65.6,65.6,0,0,0-7.9,22.4,82.5,82.5,0,0,0-.3,24.8,43.9,43.9,0,0,0,3.2,11.7,15.8,15.8,0,0,0,2.6,4.3l.8.6h-.2l1-.2s4.6-1.1,5.7,1.5S1698.7,300.1,1698.2,300.5Z" fill="none"/>
    </clipPath>
    <linearGradient id="무제_그라디언트_20" data-name="무제 그라디언트 20" x1="-143.36" y1="595.48" x2="1786.15" y2="595.48" gradientUnits="userSpaceOnUse">
      <stop offset="0" stop-color="#f2a53a"/>
      <stop offset="0.56" stop-color="#f08934"/>
      <stop offset="1" stop-color="#ef8232"/>
    </linearGradient>
  </defs>
  <title>line_4</title>
  <g clip-path="url(#clip-path)">
    <path d="M1684.2,299.5s13.1,4.2,14.4-5-23.3-39.4-61.1-31-55.5,38.7-38.6,77.8,100,49.8,136.5,44.1,230.9-62.5,380.7-9.8" transform="translate(143.4 -188.8)" fill="none" stroke-miterlimit="10" stroke-width="27" stroke="url(#무제_그라디언트_31)"/>
  </g>
  <g id="line-1">
    <g clip-path="url(#clip-path-2)">
      <path id="line-2" d="M-135.5,837.9S49.4,689.5,353.4,816.7,849.3,974.9,987.7,988.4c116.4,11.4,464.6-53,686.9-357.5,0,0,128.9-217.6,92.6-400.9,0,0-16-38.8-50.1-26.2s-36.9,74.7-36.9,74.7-3,21.4,16.2,19.2" transform="translate(143.4 -188.8)" fill="none" stroke-miterlimit="10" stroke-width="25" stroke="url(#무제_그라디언트_20)"/>
    </g>
  </g>
</svg>
